<svg preserveAspectRatio="none" overflow="visible" style="display: block;" width="24" height="24" viewBox="0 0 24 24" fill="none" xmlns="http://www.w3.org/2000/svg">
<g id="Frame 75">
<g id="Vector">
<path d="M12.5592 1.25076C12.782 3.02539 13.7228 4.00272 15.431 4.2342C15.7528 4.27535 15.7528 4.75887 15.431 4.80002C13.7228 5.03149 12.782 6.00882 12.5592 7.78345C12.5196 8.1178 12.0541 8.1178 12.0145 7.78345C11.7917 6.00882 10.8509 5.03149 9.14269 4.80002C8.82085 4.75887 8.82085 4.27535 9.14269 4.2342C10.8509 4.00272 11.7917 3.02539 12.0145 1.25076C12.0541 0.916412 12.5196 0.916412 12.5592 1.25076Z" fill="url(#paint0_linear_0_91)"/>
<path d="M23.4224 6.39996C23.094 7.22077 23.265 7.88385 23.9445 8.42412C24.0731 8.52485 23.9575 8.73283 23.8092 8.6675C23.0191 8.32636 22.3808 8.50403 21.8608 9.20987C21.7638 9.34346 21.5636 9.22339 21.6265 9.06935C21.9549 8.24855 21.7839 7.58547 21.1044 7.0452C20.9758 6.94447 21.0914 6.73649 21.2397 6.80182C22.0298 7.14296 22.6681 6.96529 23.1881 6.25945C23.2851 6.12586 23.4853 6.24593 23.4224 6.39996Z" fill="url(#paint1_linear_0_91)"/>
<path d="M0.464169 9.31249C0.967029 9.8503 1.51862 9.93353 2.14798 9.56656C2.26596 9.49659 2.38259 9.65893 2.28446 9.75653C1.76677 10.2789 1.68665 10.852 2.0399 11.5058C2.10725 11.6283 1.95098 11.7495 1.85703 11.6476C1.35417 11.1098 0.802581 11.0265 0.173223 11.3935C0.0552417 11.4635 -0.061387 11.3011 0.0367426 11.2035C0.554435 10.6811 0.63455 10.1081 0.281306 9.45428C0.213958 9.33171 0.370222 9.21055 0.464169 9.31249Z" fill="url(#paint2_linear_0_91)"/>
<path d="M2.06867 15.5033C2.14254 15.0301 2.94276 14.672 3.48444 14.1988C3.12742 12.8559 3.28746 12.3315 4.8879 11.8327C4.45701 10.3108 4.51857 9.79918 6.24211 9.36434C4.94945 8.05981 4.08768 7.06223 2.94276 5.8856C2.30258 5.23334 2.11792 4.46597 2.80733 3.74976C3.49675 3.03355 4.22311 3.25097 4.86328 3.90323C6.27905 5.36123 7.69482 6.81923 9.09827 8.29002C10.5756 9.83755 11.462 11.513 12.8285 11.513C14.1951 11.513 14.786 10.9247 15.4261 10.0294C16.6284 8.37445 18.4749 7.86305 19.8506 8.68821C20.4095 9.02341 20.3125 9.78489 19.7534 10.1197C19.5043 10.2689 19.2594 10.4204 19.0579 10.5921C18.073 11.4106 17.7283 12.6257 17.4821 13.8918C16.8419 17.2043 15.2045 19.8517 12.6685 21.9364L12.5823 22.0259C10.6864 23.1258 9.09827 23.5095 7.21469 22.0259C5.71274 20.4912 4.18617 18.9692 2.75809 17.3578C2.36414 16.8973 1.9825 16.0788 2.06867 15.5033Z" fill="url(#paint3_linear_0_91)"/>
</g>
</g>
<defs>
<linearGradient id="paint0_linear_0_91" x1="-3.84029e-07" y1="21.9894" x2="26.0052" y2="18.9024" gradientUnits="userSpaceOnUse">
<stop stop-color="#2288FF"/>
<stop offset="1" stop-color="#A683F8"/>
</linearGradient>
<linearGradient id="paint1_linear_0_91" x1="-3.84029e-07" y1="21.9894" x2="26.0052" y2="18.9024" gradientUnits="userSpaceOnUse">
<stop stop-color="#2288FF"/>
<stop offset="1" stop-color="#A683F8"/>
</linearGradient>
<linearGradient id="paint2_linear_0_91" x1="-3.84029e-07" y1="21.9894" x2="26.0052" y2="18.9024" gradientUnits="userSpaceOnUse">
<stop stop-color="#2288FF"/>
<stop offset="1" stop-color="#A683F8"/>
</linearGradient>
<linearGradient id="paint3_linear_0_91" x1="-3.84029e-07" y1="21.9894" x2="26.0052" y2="18.9024" gradientUnits="userSpaceOnUse">
<stop stop-color="#2288FF"/>
<stop offset="1" stop-color="#A683F8"/>
</linearGradient>
</defs>
</svg>
